<svg width="1340" height="481" viewBox="0 0 1340 481" fill="none" xmlns="http://www.w3.org/2000/svg">
<rect width="1340" height="481" fill="#1E1E1E"/>
<rect width="1340" height="481" fill="#111216"/>
<rect x="59" y="50" width="81" height="381" fill="#FEFEFF"/>
<rect x="162" y="50" width="157" height="73" fill="#FEFEFF"/>
<rect x="162" y="201" width="103" height="73" fill="#FEFEFF"/>
<path d="M407.17 328V153.455H522.739V183.881H444.074V225.472H515.068V255.898H444.074V328H407.17ZM584.464 153.455V328H547.561V153.455H584.464ZM730.565 209.875C729.372 205.727 727.696 202.062 725.537 198.881C723.378 195.642 720.736 192.915 717.611 190.699C714.543 188.426 711.02 186.693 707.043 185.5C703.122 184.307 698.776 183.71 694.003 183.71C685.082 183.71 677.241 185.926 670.48 190.358C663.776 194.79 658.548 201.239 654.798 209.705C651.048 218.114 649.173 228.398 649.173 240.557C649.173 252.716 651.02 263.057 654.713 271.58C658.406 280.102 663.634 286.608 670.395 291.097C677.156 295.528 685.139 297.744 694.344 297.744C702.696 297.744 709.827 296.267 715.736 293.312C721.702 290.301 726.247 286.068 729.372 280.614C732.554 275.159 734.145 268.71 734.145 261.267L741.645 262.375H696.645V234.591H769.685V256.58C769.685 271.92 766.446 285.102 759.969 296.125C753.491 307.091 744.571 315.557 733.207 321.523C721.844 327.432 708.832 330.386 694.173 330.386C677.81 330.386 663.435 326.778 651.048 319.562C638.662 312.29 629.003 301.977 622.071 288.625C615.196 275.216 611.759 259.307 611.759 240.898C611.759 226.75 613.804 214.136 617.895 203.057C622.043 191.92 627.838 182.489 635.281 174.761C642.724 167.034 651.389 161.153 661.276 157.119C671.162 153.085 681.872 151.068 693.406 151.068C703.293 151.068 712.497 152.517 721.02 155.415C729.543 158.256 737.099 162.29 743.69 167.517C750.338 172.744 755.764 178.966 759.969 186.182C764.173 193.341 766.872 201.239 768.065 209.875H730.565ZM822.099 328H782.554L842.81 153.455H890.366L950.537 328H910.991L867.27 193.341H865.906L822.099 328ZM819.628 259.392H913.037V288.199H819.628V259.392ZM969.67 328V306.097L1056.77 183.881H969.5V153.455H1103.14V175.358L1015.95 297.574H1103.31V328H969.67ZM1161.71 328H1122.16L1182.42 153.455H1229.98L1290.15 328H1250.6L1206.88 193.341H1205.52L1161.71 328ZM1159.24 259.392H1252.65V288.199H1159.24V259.392Z" fill="#FEFEFF"/>
</svg>
